
<svg xmlns="http://www.w3.org/2000/svg">
  <symbol id="new-user" viewBox="0 0 23 16">
    <g>
      <path d="M14.5 8C16.71 8 18.5 6.21 18.5 4C18.5 1.79 16.71 0 14.5 0C12.29 0 10.5 1.79 10.5 4C10.5 6.21 12.29 8 14.5 8ZM5.5 6V3H3.5V6H0.5V8H3.5V11H5.5V8H8.5V6H5.5ZM14.5 10C11.83 10 6.5 11.34 6.5 14V16H22.5V14C22.5 11.34 17.17 10 14.5 10Z"/>
    </g>
  </symbol>
  <symbol id="delete" viewBox="0 0 16 16">
    <g>
      <path d="M8 2C4.682 2 2 4.682 2 8C2 11.318 4.682 14 8 14C11.318 14 14 11.318 14 8C14 4.682 11.318 2 8 2ZM8 12.8C5.354 12.8 3.2 10.646 3.2 8C3.2 5.354 5.354 3.2 8 3.2C10.646 3.2 12.8 5.354 12.8 8C12.8 10.646 10.646 12.8 8 12.8ZM10.154 5L8 7.154L5.846 5L5 5.846L7.154 8L5 10.154L5.846 11L8 8.846L10.154 11L11 10.154L8.846 8L11 5.846L10.154 5Z"/>
    </g>
  </symbol>
</svg>